# xmcd
#
# Track frame offsets:
#	150
#	22843
#	48330
#	67286
#	94738
#	117447
#	133905
#	144943
#	165055
#	190836
#
# Disc length: 2879 seconds
#
# Revision: 1
# Processed by: cddbd v1.5PL3 Copyright (c) Steve Scherf et al.
# Submitted via: EasyCDDAExtractor 6.5.0.1
#
DISCID=830b3d0a
DTITLE=Billy Lee Janey - Mankiller
DYEAR=1900
DGENRE=Blues
TTITLE0=Witch's Brew
TTITLE1=Mankiller
TTITLE2=Who's Been Gettin' Your Love
TTITLE3=At The Midnite Hour
TTITLE4=Thinkin'
TTITLE5=Can't Stop Rockin' The Blues
TTITLE6=Billylee's Boogie
TTITLE7=One Hill Ain't No Mountain
TTITLE8=Be Good To Me
TTITLE9=Funkin' Around
EXTD=
EXTT0=
EXTT1=
EXTT2=
EXTT3=
EXTT4=
EXTT5=
EXTT6=
EXTT7=
EXTT8=
EXTT9=
PLAYORDER=
